<?xml version="1.0" encoding="utf-8"?>
<!-- Generator: Adobe Illustrator 26.0.0, SVG Export Plug-In . SVG Version: 6.00 Build 0)  -->
<svg version="1.1" id="Logo" xmlns="http://www.w3.org/2000/svg" xmlns:xlink="http://www.w3.org/1999/xlink" x="0px" y="0px"
	 viewBox="0 0 1920 1080" enable-background="new 0 0 1920 1080" xml:space="preserve">
<g>
	<g>
		<path fill="#9ecef4" d="M1713.713,590.188c10.349,8.708,22.968,13.063,37.867,13.063c11.36,0,21.207-2.019,29.537-6.06
			c8.33-4.035,16.53-9.968,24.612-17.795l26.882,23.855c-9.595,11.36-21.015,20.447-34.266,27.264
			c-13.255,6.814-29.099,10.222-47.521,10.222c-14.39,0-27.831-2.527-40.326-7.573c-12.498-5.046-23.353-12.117-32.564-21.204
			c-9.217-9.087-16.471-20.004-21.774-32.753c-5.3-12.743-7.952-26.944-7.952-42.599c0-14.387,2.397-27.89,7.195-40.515
			c4.795-12.619,11.549-23.666,20.258-33.131c8.711-9.468,18.993-16.974,30.861-22.531c11.863-5.548,24.99-8.33,39.377-8.33
			c15.903,0,29.85,2.906,41.843,8.708c11.987,5.812,21.96,13.633,29.912,23.477c7.952,9.847,13.947,21.334,17.987,34.459
			c4.035,13.128,6.057,26.882,6.057,41.272c0,2.022-0.065,4.041-0.189,6.06c-0.13,2.022-0.319,4.165-0.568,6.435h-146.915
			C1696.799,568.922,1703.361,581.476,1713.713,590.188z M1796.26,522.219c-0.757-7.319-2.403-14.201-4.922-20.639
			c-2.527-6.435-5.936-11.987-10.222-16.66c-4.298-4.668-9.409-8.389-15.336-11.168c-5.936-2.776-12.687-4.168-20.261-4.168
			c-14.139,0-25.812,4.866-35.023,14.579c-9.217,9.722-14.833,22.407-16.849,38.056H1796.26z"/>
	</g>
	<path fill="#9ecef4" d="M646.442,574.479c0,8.873,2.142,15.275,6.443,19.203c4.295,3.931,10.358,5.891,18.194,5.891
		c9.857,0,19.333-2.273,28.427-6.823v37.527c-5.818,3.286-12.006,5.814-18.57,7.58c-6.578,1.766-14.158,2.653-22.744,2.653
		c-8.346,0-16.086-1.012-23.216-3.037c-7.136-2.028-13.315-5.319-18.538-9.879c-5.224-4.563-9.234-10.572-12.034-18.047
		c-2.807-7.468-4.205-16.779-4.205-27.926V476.004h-25.397v-39.044h25.397V382h46.244v54.961h53.824v39.044h-53.824V574.479z"/>
	<path fill="#9ecef4" d="M868.554,637.099v-24.64c-6.82,8.091-15.54,14.914-26.154,20.47c-10.613,5.556-23.5,8.34-38.661,8.34
		c-9.608,0-18.704-1.328-27.294-3.982c-8.592-2.653-16.109-6.568-22.552-11.75c-6.443-5.176-11.626-11.619-15.54-19.33
		c-3.921-7.708-5.875-16.613-5.875-26.725v-0.757c0-10.862,2.018-20.339,6.063-28.43c4.039-8.081,9.665-14.78,16.868-20.087
		c7.2-5.307,15.789-9.288,25.774-11.942c9.981-2.653,20.783-3.978,32.409-3.978c12.13,0,22.424,0.757,30.892,2.273
		c8.465,1.517,16.613,3.541,24.449,6.063v-4.927c0-13.893-4.234-24.506-12.698-31.84c-8.468-7.325-20.659-10.99-36.579-10.99
		c-11.37,0-21.479,1.137-30.324,3.41c-8.848,2.273-17.814,5.307-26.91,9.097l-12.51-36.767c11.118-5.051,22.488-9.097,34.114-12.13
		c11.622-3.033,25.646-4.547,42.077-4.547c29.813,0,51.927,7.392,66.331,22.172c14.404,14.783,21.607,35.573,21.607,62.356v118.641
		H868.554z M869.694,552.192c-5.818-2.273-12.698-4.17-20.659-5.687c-7.96-1.513-16.364-2.273-25.209-2.273
		c-14.404,0-25.649,2.784-33.734,8.34c-8.091,5.562-12.13,13.519-12.13,23.88v0.757c0,9.608,3.726,16.932,11.182,21.984
		c7.452,5.061,16.613,7.583,27.482,7.583c7.58,0,14.592-1.009,21.035-3.033c6.443-2.021,12.066-4.863,16.868-8.528
		c4.799-3.659,8.528-8.085,11.182-13.267c2.653-5.176,3.982-10.926,3.982-17.245V552.192z"/>
	<path fill="#9ecef4" d="M963.695,474.488v-37.527h169.812v31.464l-115.608,131.148h115.608v37.527H959.525v-31.46l115.611-131.151
		H963.695z"/>
	<path fill="#9ecef4" d="M1470.477,637.099h-46.244V436.961h46.244v31.403c3.276-4.844,6.865-9.368,10.773-13.573
		c3.905-4.205,8.439-7.966,13.605-11.284c5.163-3.318,10.837-5.929,17.009-7.842c6.172-1.913,13.168-2.874,20.978-2.874
		c22.68,0,40.19,6.954,52.54,20.85c12.341,13.899,18.519,32.597,18.519,56.097v127.361h-46.244V523.65
		c0-15.63-3.694-27.67-11.086-36.116c-7.392-8.445-17.852-12.667-31.377-12.667c-13.28,0-24.046,4.352-32.316,13.046
		c-8.267,8.701-12.401,20.866-12.401,36.489V637.099z"/>
	<path fill="#9ecef4" d="M1270.912,646.022c-59.996,0-108.804-48.808-108.804-108.804c0-59.996,48.808-108.804,108.804-108.804
		s108.804,48.808,108.804,108.804C1379.716,597.214,1330.908,646.022,1270.912,646.022z M1270.912,470.919
		c-36.556,0-66.299,29.743-66.299,66.299s29.743,66.299,66.299,66.299s66.299-29.743,66.299-66.299
		S1307.468,470.919,1270.912,470.919z"/>
	<path fill="#9ecef4" d="M542.145,537.268c-0.254-26.068-9.77-52.133-27.571-71.499c-27.173-29.561-72.502-41.197-110.266-27.554
		c-24.008,8.673-43.692,26.048-62.743,43.038c-33.318,29.713-66.637,59.426-99.955,89.139
		c-15.896,14.176-33.482,29.093-54.735,30.509c-35.994,2.399-67.718-30.948-66.032-66.332c1.113-23.364,16.561-45.455,38.123-54.52
		c32.685-13.74,71.662,3.913,83.344,37.175c1.079-0.948,2.191-1.929,3.302-2.91c9.94-8.73,20.108-17.787,29.949-26.615
		c-4.839-8.828-10.888-16.904-17.95-23.999l0.163-0.163c-15.498-15.498-35.017-25.568-56.172-29.23
		c-1.733-0.294-3.466-0.556-5.231-0.785c-1.308-0.164-2.616-0.327-3.956-0.425c-1.144-0.131-2.321-0.229-3.498-0.262
		c-0.262-0.033-0.49-0.033-0.752-0.033c-1.537-0.098-3.106-0.131-4.676-0.131h-0.523c-14.157,0.033-27.857,2.845-40.51,8.174
		c-12.261,5.101-23.541,12.588-33.285,22.201c-0.163,0.163-0.327,0.327-0.458,0.491c-20.239,20.483-30.351,47.258-30.412,74.035
		c0,11.968,2.033,23.465,5.725,34.196c0.136,0.399,0.265,0.799,0.406,1.197c0.33,0.923,0.684,1.833,1.039,2.744
		c0.31,0.801,0.617,1.602,0.947,2.396c0.212,0.507,0.437,1.006,0.657,1.509c0.511,1.18,1.036,2.354,1.593,3.518
		c0.053,0.109,0.108,0.217,0.161,0.326c22.27,45.87,78.472,70.735,127.127,53.757c25.463-8.885,46.23-27.369,66.272-45.414
		c31.838-28.666,63.676-57.332,95.514-85.998c11.935-10.746,24.282-21.743,39.396-27.173c24.001-8.622,53.032-0.543,69.128,19.238
		c20.013,24.594,17.363,62.807-5.375,84.683c-11.313,10.888-26.68,17.623-43.616,17.623c-27.269,0-50.515-17.46-59.212-41.786
		c-0.491,0.393-0.948,0.85-1.439,1.242c-0.294,0.262-0.556,0.523-0.85,0.785l-0.262,0.229
		c-10.038,8.959-20.272,18.146-30.603,27.334c-4.774,4.218-9.547,8.501-14.354,12.719V698h46.265l-0.294-73.729v-0.948
		c17.165,12.196,38.124,19.356,60.749,19.356c39.497,0,73.991-21.841,92.072-54.046C538.158,572.94,542.319,555.103,542.145,537.268
		z"/>
</g>
</svg>
