<?xml version="1.0" encoding="utf-8"?>
<!-- Generator: Adobe Illustrator 26.0.0, SVG Export Plug-In . SVG Version: 6.00 Build 0)  -->
<svg version="1.1" id="Logo" xmlns="http://www.w3.org/2000/svg" xmlns:xlink="http://www.w3.org/1999/xlink" x="0px" y="0px"
	 viewBox="0 0 1920 1080" enable-background="new 0 0 1920 1080" xml:space="preserve">
<g>
	<path fill="#1B48FA" d="M1191.919,511.998c-0.254-26.068-9.77-52.133-27.571-71.499c-27.173-29.561-72.502-41.197-110.266-27.554
		c-24.008,8.673-43.692,26.048-62.743,43.038c-33.318,29.713-66.637,59.426-99.955,89.139
		c-15.896,14.176-33.482,29.093-54.735,30.509c-35.994,2.399-67.718-30.948-66.032-66.332c1.113-23.364,16.561-45.455,38.123-54.52
		c32.685-13.74,71.662,3.913,83.344,37.175c1.079-0.948,2.191-1.929,3.302-2.91c9.94-8.73,20.108-17.787,29.949-26.615
		c-4.839-8.828-10.888-16.904-17.95-23.999l0.163-0.163c-15.498-15.498-35.017-25.568-56.172-29.23
		c-1.733-0.294-3.466-0.556-5.231-0.785c-1.308-0.164-2.616-0.327-3.956-0.425c-1.144-0.131-2.322-0.229-3.499-0.262
		c-0.262-0.033-0.49-0.033-0.752-0.033c-1.537-0.098-3.106-0.131-4.675-0.131h-0.523c-14.157,0.033-27.857,2.845-40.51,8.174
		c-12.261,5.101-23.541,12.588-33.285,22.201c-0.163,0.163-0.327,0.327-0.458,0.491c-20.239,20.483-30.351,47.258-30.412,74.035
		c0,11.969,2.033,23.465,5.725,34.196c0.136,0.399,0.265,0.799,0.406,1.197c0.33,0.923,0.684,1.833,1.039,2.744
		c0.31,0.801,0.617,1.601,0.946,2.396c0.212,0.507,0.437,1.006,0.657,1.509c0.511,1.18,1.036,2.354,1.593,3.518
		c0.053,0.109,0.108,0.217,0.161,0.326c22.27,45.87,78.472,70.735,127.127,53.757c25.463-8.885,46.23-27.369,66.272-45.414
		c31.838-28.666,63.676-57.332,95.514-85.998c11.935-10.746,24.282-21.743,39.396-27.173c24.001-8.622,53.032-0.543,69.128,19.238
		c20.013,24.594,17.363,62.807-5.375,84.683c-11.313,10.888-26.68,17.623-43.616,17.623c-27.269,0-50.516-17.46-59.213-41.786
		c-0.49,0.393-0.948,0.85-1.439,1.242c-0.294,0.262-0.556,0.523-0.85,0.785l-0.262,0.229c-10.038,8.959-20.272,18.146-30.603,27.334
		c-4.774,4.218-9.547,8.501-14.354,12.719v97.303h46.265l-0.294-73.729v-0.948c17.166,12.196,38.124,19.356,60.749,19.356
		c39.497,0,73.991-21.841,92.072-54.046C1187.931,547.671,1192.093,529.834,1191.919,511.998z"/>
</g>
</svg>
